<svg xmlns="http://www.w3.org/2000/svg" width="483.645" height="485.5" viewBox="0 0 483.645 485.5">
  <g id="Group_2" data-name="Group 2" transform="translate(-250 -149.5)">
    <g id="Path_7" data-name="Path 7" transform="translate(250 149.5)" fill="none">
      <path d="M241.823,0C375.377,0,483.645,108.683,483.645,242.75S375.377,485.5,241.823,485.5,0,376.817,0,242.75,108.268,0,241.823,0Z" stroke="none"/>
      <path d="M 241.822509765625 30 C 125.0231323242188 30 29.99996948242188 125.4392700195312 29.99996948242188 242.75 C 29.99996948242188 360.0607299804688 125.0231323242188 455.5 241.822509765625 455.5 C 358.6217651367188 455.5 453.6449584960938 360.0607299804688 453.6449584960938 242.75 C 453.6449584960938 125.4392700195312 358.6217651367188 30 241.822509765625 30 M 241.822509765625 0 C 375.3774108886719 0 483.6449584960938 108.6828308105469 483.6449584960938 242.75 C 483.6449584960938 376.8170776367188 375.3774108886719 485.5 241.822509765625 485.5 C 108.2676086425781 485.5 -3.0517578125e-05 376.8170776367188 -3.0517578125e-05 242.75 C -3.0517578125e-05 108.6828308105469 108.2676086425781 0 241.822509765625 0 Z" stroke="none" fill="#0e8cc4"/>
    </g>
    <text id="i" transform="translate(492.277 524)" font-size="339" font-family="Lato-Regular, Lato"><tspan x="-43.392" y="0">i</tspan></text>
  </g>
</svg>
