<?xml version="1.0" encoding="utf-8"?>
<!-- Generator: Adobe Illustrator 22.1.0, SVG Export Plug-In . SVG Version: 6.00 Build 0)  -->
<svg version="1.1" id="Layer_1" xmlns="http://www.w3.org/2000/svg" xmlns:xlink="http://www.w3.org/1999/xlink" x="0px" y="0px"
	 viewBox="0 0 2877.1 652.8" style="enable-background:new 0 0 2877.1 652.8;" xml:space="preserve">
<style type="text/css">
	.st0{fill:#1266B0;}
</style>
<g>
	<polygon points="281.3,146.2 544,337 440.3,451.8 520,525.9 372.3,652.8 445,530.6 359.1,447.5 364.9,474.5 284.8,565 165,435 
		273.2,491.7 422.4,317.2 446,326.6 	"/>
	<path d="M550.2,218.8c-25.2,0-45.7,20.8-45.7,46.5c0,25.7,20.4,46.6,45.7,46.6c25.2,0,45.7-20.8,45.7-46.6
		C595.9,239.6,575.5,218.8,550.2,218.8z M291.1,63.9C239.6,52.8,184.1,31.7,149.1,0c0,0,9.8,322.7,259.6,285.6l-124-135.8l-1.6-1.2
		l1,0.6l-2.8-3.1l11.8,8.6l154.5,94.5C454,197.3,444.8,97.1,291.1,63.9z"/>
	<path class="st0" d="M139.7,348.6l214,9.8l17.2-20.1L139.7,348.6z M302.5,418.3l26.1-30.5L0,403.1L302.5,418.3z"/>
	<path d="M870.7,275.6c0,19.1-1.9,34-5.8,44.7c-10.4,29-41.6,43.6-93.9,43.6H627.2c-9.6,0-14.4-7.7-14.4-23.1
		c0-10.5,0.7-17.8,2.2-21.9c2.1-5.7,6.2-8.5,12.2-8.5H771c38.8,0,58.2-11.2,58.2-33.6v-30.7c0-21.8-18.8-33.7-56.3-35.7l-69-3.5
		c-3.2-0.2-7.9-0.5-13.8-0.9c-5.9-0.6-13.1-1.4-21.7-2.3c-15-2.7-27.8-10.4-38.5-23.1c-11.7-14-17.6-32.5-17.6-55.3V98.4
		c0-41.5,14.7-68.9,44.1-82.2c14.1-5.7,39.9-8.5,77.4-8.5c9.7,0,14.6,9.9,14.6,29.8c0,11.5-2.9,18.7-8.8,21.6
		c-0.9,0.8-6.8,1.2-17.8,1.2c-45.4,0-68.1,12.5-68.1,37.4v24.9c0,15.4,8.5,25.4,25.4,30.1c3.2,1,7.9,1.8,14,2.3
		c6.2,0.4,13.8,0.6,22.8,0.6h55.5c26.6,0,47.5,5.4,62.8,16.1c24.2,15.6,36.3,39.6,36.3,71.9V275.6"/>
	<path d="M1099.1,275.6V166.8c0-14.8-7.3-24.5-21.9-28.9c-5.9-1.8-16.8-2.6-32.7-2.6h-61.5c-34.9,0-52.4,11-52.4,33v141.8h123.1
		C1083.9,310.1,1099.1,298.6,1099.1,275.6 M1138.9,274.7c0,57.9-28.4,86.9-85.3,86.9H930.6v57c0,10.9-2.7,17.8-8,20.8
		c-1.6,1.4-7.2,2-16.8,2c-9.7,0-14.6-7.6-14.6-22.8V166.8c0-34.1,10.3-57.7,31-70.8c12-8.4,31.7-12.6,59.1-12.6h62.8
		c63.2,0,94.8,27.5,94.8,82.5V274.7"/>
	<path d="M1369.1,276.8V168.9c0-22.2-16.2-33.3-48.6-33.3h-64.1c-12,0-22.7,2.3-32.2,7c-13.5,6.8-20.2,17.2-20.2,31v103.2
		c0,13.3,6.9,23,20.6,29.2c9.1,4.1,19.8,6.1,32,6.1h64.1c10.4,0,20.1-2.3,29.4-7C1362.8,298.7,1369.1,289.3,1369.1,276.8
		 M1409.1,276.8c0,32-10.1,55.4-30.3,70.2c-14.3,11.3-33.4,17-57.2,17H1256c-21.7,0-41.3-5.7-58.9-17.2
		c-21.7-15.2-32.5-38.5-32.5-69.9V173.6c0-31.4,10.8-55.2,32.4-71.3c15.8-12.5,35.5-18.7,58.9-18.7h65.8c58.3,0,87.5,29.8,87.5,89.5
		V276.8"/>
	<path d="M1547.2,112.7c0,15.4-5.9,23.1-17.6,23.1c-1.6,0-4-0.1-7.1-0.3c-3-0.4-5.3-0.6-6.9-0.6c-30.3,0-45.4,11.8-45.4,35.4v170.5
		c0,11.3-2.7,18.4-8.2,21.3c-2.2,1.2-8,1.8-17.2,1.8c-9.4,0-14-7.8-14-23.4V170.3c0-36.7,12-61.5,36.1-74.6
		c14.7-8.2,36.6-12.3,65.6-12.3C1542.2,83.5,1547.2,93.2,1547.2,112.7"/>
	<path d="M1711.7,114.5c0,15.2-4.9,22.8-14.8,22.8h-62.5v203.5c0,15.4-4.9,23.1-14.6,23.1c-9.6,0-15.2-0.7-16.8-2
		c-5.4-3.1-8-10.1-8-21.1V137.3c-5.2,0-9.5-0.1-12.9-0.3c-3.2-0.4-5.5-0.8-6.9-1.2c-6.2-3.3-9.4-11.4-9.4-24.3
		c0-12.9,3.1-21,9.4-24.3c1.4-0.4,3.7-0.7,6.9-0.9c3.4-0.4,7.7-0.6,12.9-0.6V30.6c0-15.2,4.9-22.8,14.6-22.8
		c9.6,0,15.2,0.7,16.8,2.1c5.4,2.9,8,9.8,8,20.8v55.3h62.5C1706.8,85.8,1711.7,95.4,1711.7,114.5"/>
	<path d="M1950.9,283.8c0,53.4-26.1,80.1-78.2,80.1h-133.5c-9.7,0-14.6-7.7-14.6-23.1c0-19.1,4.9-28.7,14.6-28.7h133.7
		c24.7,0,37-9.5,37-28.4v-10.5c0-17-11.2-25.4-33.7-25.4h-64.1c-59,0-88.5-25.7-88.5-77.2v-15.2c0-34.1,14.8-56,44.5-65.5
		c6-2.1,14.7-3.7,26.2-4.7c11.6-1.2,26.1-1.8,43.6-1.8c9.8,0,14.8,9.7,14.8,29.2c0,15.2-4.9,22.8-14.8,22.8h-28.4
		c-14.8,0-23.8,0.3-26.7,0.9c-13.1,2.7-19.6,9.1-19.6,19V170c0,16.8,16.4,25.1,49.2,25.1h65.5c48.8,0,73.1,25.3,73.1,75.7V283.8"/>
	<path d="M2209,140.2V91.7c0-20.7-18.1-31-54.2-31h-146.4v122.8H2155C2191,183.5,2209,169.1,2209,140.2 M2250.1,142.3
		c0,35.7-11.3,61.4-34,77.2c-17.6,11.5-38.8,17.2-63.6,17.2h-144.2v104.1c0,11.1-3,18.1-9,21.1c-1.6,1.4-7.6,2-18,2
		c-9.7,0-14.6-7.7-14.6-23.1V30.6c0-15.2,4.9-22.8,14.6-22.8h173c23.4,0,43.3,5.1,59.7,15.2c24.1,14,36.1,35.4,36.1,64V142.3"/>
	<path d="M2453.6,265.1c0-2.7-0.1-6.1-0.2-10.2c0-4.1-0.1-8.9-0.2-14.3c-0.1-5.5-0.2-10.2-0.4-14.3c0-4.1,0-7.5,0-10.2h-140.1
		c-8.2,0-16.7,2.3-25.4,7c-11.3,6-17,13.9-17,23.7V282c0,10.3,5.9,18.2,17.6,23.7c7.5,4.3,16.1,6.4,26,6.4h98
		c14.7,0,24.8-2.2,30.3-6.7C2449.8,299.4,2453.6,285.9,2453.6,265.1 M2492.3,279.7c0,56.2-26.9,84.2-80.8,84.2H2315
		c-20.7,0-38.6-5.9-53.7-17.8c-20.3-15.2-30.5-36.4-30.5-63.5V247c0-29.2,9.7-51.2,29-65.8c14.3-11.3,32.3-17,53.9-17h139.5
		c-2.1-19.7-19.9-29.5-53.5-29.5c-1.4,0-3.1,0.1-5.1,0.3c-1.9,0-4.1,0.1-6.5,0.3c-0.1,0.2-0.7,0.3-1.9,0.3h-1.7h-3h-4.7
		c-9.7,0-14.6-9.6-14.6-29c0-15.4,4.9-23.1,14.6-23.1c31.5,0,55.7,3.4,72.4,10.2c28.7,12.7,43,38,43,76V279.7"/>
	<path d="M2630.3,112.7c0,15.4-5.9,23.1-17.6,23.1c-1.6,0-4-0.1-7.1-0.3c-3-0.4-5.3-0.6-6.9-0.6c-30.3,0-45.4,11.8-45.4,35.4v170.5
		c0,11.3-2.7,18.4-8.2,21.3c-2.2,1.2-8,1.8-17.2,1.8c-9.4,0-14-7.8-14-23.4V170.3c0-36.7,12-61.5,36.1-74.6
		c14.7-8.2,36.6-12.3,65.6-12.3C2625.4,83.5,2630.3,93.2,2630.3,112.7"/>
	<path d="M2861.7,342.3c0,14.4-5.5,21.6-16.6,21.6c-10.5,0-16.8-0.9-19.1-2.6l-134.8-105.6v85.1c0,10.9-2.6,17.9-7.9,21.1
		c-1.6,1.4-7.2,2-16.6,2c-9.7,0-14.6-7.7-14.6-23.1V30.6c0-15.2,4.9-22.8,14.6-22.8c9.1,0,14.7,0.6,16.8,1.8
		c5.1,2.7,7.7,9.7,7.7,21.1v161.7h0.2l133-104.1c3.4-1.6,9.4-2.3,18-2.3c11.1,0,16.6,7.1,16.6,21.4c0,9.4-3.4,16.7-10.1,21.9
		L2728,223.3l123.6,96.8C2858.3,325.3,2861.7,332.7,2861.7,342.3"/>
	<path class="st0" d="M788.7,582.4c0-10.4-12.5-15.6-37.6-15.6H643.4v40.6h105.7c24.5,0,37.6-4.7,39.4-14.2c0.1-0.5,0.1-1.6,0.1-3.5
		C788.7,588,788.7,585.6,788.7,582.4 M789.5,530.4c0-2.7-0.3-6.9-0.8-12.6c-0.9-10.4-14-15.7-39.4-15.7H644.1v42.2h106.5
		C776.6,544.3,789.5,539.7,789.5,530.4 M819.2,590.1c0,14.4-7.6,25.1-22.7,32c-11.7,5.4-26.3,8-44,8H623.7c-7.1,0-10.7-3.2-10.7-9.7
		v-131c0-6.4,3.6-9.6,10.7-9.6h127c11.4,0,21.8,0.8,31.2,2.5c10.1,2.2,18.7,6.3,25.7,12.2c7.7,6.7,11.6,14.4,11.6,23.2
		c0,8.6-0.4,14.7-1.1,18.5c-0.2,0.7-0.8,2-1.8,3.7c-1,1.7-2.4,3.9-4.1,6.5c-3.4,5.3-5.1,8.2-5.1,8.8c0,0.4,1.7,3,5.1,7.8
		c1.7,2.4,3.1,4.4,4.1,6.1c1,1.6,1.6,2.9,1.8,3.8c0.4,1.3,0.6,3.4,0.8,6.3C819.1,581.9,819.2,585.6,819.2,590.1"/>
	<path class="st0" d="M870.3,620.3c0,6.5-3.6,9.7-10.7,9.7c-7,0-11.1-0.3-12.3-0.9c-3.9-1.3-5.9-4.3-5.9-8.9v-131
		c0-6.4,3.6-9.6,10.7-9.6c6.6,0,10.8,0.2,12.4,0.7c3.8,1.2,5.7,4.1,5.7,8.9V620.3"/>
	<path class="st0" d="M1053.9,588.4c0-1.2,0-2.6-0.1-4.3c0-1.7,0-3.7-0.1-6c-0.1-2.3-0.2-4.3-0.3-6.1c0-1.7,0-3.2,0-4.3H951
		c-6,0-12.2,1-18.6,3c-8.3,2.5-12.4,5.9-12.4,10v14.9c0,4.4,4.3,7.7,12.8,10c5.5,1.8,11.8,2.7,19,2.7h71.6c10.8,0,18.1-0.9,22.1-2.8
		C1051.1,602.9,1053.9,597.2,1053.9,588.4 M1082.2,594.5c0,23.7-19.7,35.6-59.1,35.6h-70.5c-15.1,0-28.2-2.5-39.2-7.5
		c-14.9-6.4-22.3-15.3-22.3-26.8v-15.1c0-12.3,7.1-21.6,21.2-27.8c10.5-4.8,23.6-7.2,39.4-7.2h102c-1.5-8.3-14.6-12.5-39.1-12.5
		c-1,0-2.2,0-3.7,0.1c-1.4,0-3,0-4.8,0.1c-0.1,0.1-0.5,0.1-1.4,0.1h-1.2h-2.2h-3.4c-7.1,0-10.7-4.1-10.7-12.2
		c0-6.5,3.6-9.7,10.7-9.7c23.1,0,40.7,1.4,52.9,4.3c21,5.4,31.4,16,31.4,32.1V594.5"/>
	<path class="st0" d="M1264.4,588.4c0-1.2,0-2.6-0.1-4.3c0-1.7,0-3.7-0.1-6c-0.1-2.3-0.2-4.3-0.3-6.1c0-1.7,0-3.2,0-4.3h-102.4
		c-6,0-12.2,1-18.6,3c-8.3,2.5-12.4,5.9-12.4,10v14.9c0,4.4,4.3,7.7,12.9,10c5.5,1.8,11.8,2.7,19,2.7h71.6c10.7,0,18.1-0.9,22.1-2.8
		C1261.6,602.9,1264.4,597.2,1264.4,588.4 M1292.7,594.5c0,23.7-19.7,35.6-59.1,35.6h-70.5c-15.1,0-28.2-2.5-39.2-7.5
		c-14.8-6.4-22.3-15.3-22.3-26.8v-15.1c0-12.3,7.1-21.6,21.2-27.8c10.5-4.8,23.6-7.2,39.4-7.2h102c-1.5-8.3-14.6-12.5-39.1-12.5
		c-1,0-2.2,0-3.7,0.1c-1.4,0-3,0-4.8,0.1c-0.1,0.1-0.5,0.1-1.4,0.1h-1.2h-2.2h-3.4c-7.1,0-10.7-4.1-10.7-12.2
		c0-6.5,3.6-9.7,10.7-9.7c23.1,0,40.7,1.4,52.9,4.3c21,5.4,31.4,16,31.4,32.1V594.5"/>
	<path class="st0" d="M1512,519.7c0,2.3-1.3,4.9-4,7.8l-91.9,100.2c-3.2,3.4-6.8,5.1-10.9,5.1s-7.7-1.6-10.7-4.8l-92.4-100.5
		c-2.6-2.9-4-5.5-4-7.8c0-5.7,5.2-8.5,15.7-8.5c6.3,0,10.7,1.4,13.1,4.1l78.3,86.2l77.9-86.2c2.5-2.7,6.8-4.1,13.1-4.1
		C1506.8,511.2,1512,514.1,1512,519.7"/>
	<path class="st0" d="M1688.1,588.4c0-1.2,0-2.6-0.1-4.3c0-1.7,0-3.7-0.1-6c-0.1-2.3-0.2-4.3-0.3-6.1c0-1.7,0-3.2,0-4.3h-102.4
		c-6,0-12.2,1-18.6,3c-8.3,2.5-12.4,5.9-12.4,10v14.9c0,4.4,4.3,7.7,12.8,10c5.5,1.8,11.8,2.7,19,2.7h71.6c10.8,0,18.1-0.9,22.1-2.8
		C1685.4,602.9,1688.1,597.2,1688.1,588.4 M1716.4,594.5c0,23.7-19.7,35.5-59.1,35.5h-70.5c-15.1,0-28.2-2.5-39.2-7.5
		c-14.9-6.4-22.3-15.3-22.3-26.8v-15.1c0-12.3,7.1-21.6,21.2-27.8c10.5-4.8,23.6-7.2,39.4-7.2h102c-1.6-8.3-14.6-12.5-39.1-12.5
		c-1,0-2.2,0-3.7,0.1c-1.4,0-3,0-4.8,0.1c-0.1,0.1-0.5,0.1-1.4,0.1h-1.2h-2.2h-3.4c-7.1,0-10.7-4.1-10.7-12.2
		c0-6.5,3.6-9.7,10.7-9.7c23.1,0,40.7,1.4,52.9,4.3c21,5.4,31.4,16,31.4,32.1V594.5"/>
	<path class="st0" d="M1914.9,620.3c0,6.5-3.6,9.7-10.8,9.7c-7.1,0-11.3-0.3-12.4-0.9c-3.9-1.2-5.9-4.2-5.9-8.9V545
		c0-5.4-4.9-8.8-14.8-10.5c-1.7-0.3-4.4-0.5-8.1-0.6c-3.6-0.2-8.1-0.2-13.5-0.2h-49.8c-5,0-9.2,0.1-12.7,0.2
		c-3.4,0.2-6.1,0.4-8.1,0.7c-9.3,1.6-13.9,5.1-13.9,10.5v75.2c0,6.5-3.6,9.7-10.7,9.7c-7.1,0-11.3-0.3-12.4-0.9
		c-3.8-1.2-5.7-4.2-5.7-8.9v-74.9c0-22.5,22.1-33.7,66.2-33.7h47.2c43.6,0,65.5,11.1,65.5,33.4V620.3"/>
	<path class="st0" d="M2091.1,593.2v-58.6h-86.8c-25.8,0-38.7,5.1-38.7,15.4v42c0,7.7,4.9,12.6,14.6,14.8c4.2,1,12.4,1.5,24.7,1.5
		h41.6C2076.3,608.2,2091.1,603.2,2091.1,593.2 M2119.9,593.7c0,12.7-8.7,22.3-26.1,28.9c-12.3,5-27.1,7.5-44.4,7.5h-44
		c-44.6,0-67.6-11.1-69-33.4c-0.3-3.9-0.4-9.1-0.4-15.6c0-12.9,0.3-23.5,0.8-31.6c1.6-24.5,24.4-36.8,68.2-36.8h86.1v-23.1
		c0-6.5,3.6-9.8,10.7-9.8c5.1,0,9.2,0.3,12.3,1c3.9,1.2,5.9,4.2,5.9,8.8V593.7"/>
	<path class="st0" d="M2302.7,596.3c0,22.5-19,33.8-57.1,33.8H2148c-7.1,0-10.7-3.2-10.7-9.7c0-8.1,3.6-12.1,10.7-12.1h97.7
		c18,0,27.1-4,27.1-12v-4.4c0-7.2-8.2-10.7-24.6-10.7h-46.9c-43.1,0-64.7-10.9-64.7-32.6v-6.4c0-14.4,10.8-23.6,32.5-27.6
		c4.4-0.9,10.8-1.6,19.1-2c8.5-0.5,19.1-0.7,31.8-0.7c7.2,0,10.8,4.1,10.8,12.3c0,6.4-3.6,9.6-10.8,9.6h-20.8
		c-10.8,0-17.4,0.1-19.5,0.4c-9.6,1.2-14.4,3.8-14.4,8v6.2c0,7.1,12,10.6,35.9,10.6h47.8c35.6,0,53.4,10.7,53.4,32V596.3"/>
	<path class="st0" d="M2502.5,620.3c0,4.7-1.9,7.7-5.7,8.9c-1.2,0.6-5.3,0.9-12.4,0.9c-7.1,0-10.7-3.3-10.7-9.8v-69.7
		c0-7.3-4.8-12.1-14.5-14.4c-6.4-1.2-14.4-1.7-24.2-1.7h-84.7v85.9c0,6.5-3.6,9.8-10.7,9.8c-7.1,0-11.3-0.3-12.4-0.9
		c-3.8-1.2-5.7-4.2-5.7-8.9v-131c0-4.8,1.9-7.7,5.7-8.9c1.5-0.5,5.6-0.7,12.4-0.7c7.1,0,10.7,3.2,10.7,9.6v23.3h77.9
		c23.1,0,39.2,1.6,48.5,4.9c17.2,5.6,25.8,16.5,25.8,32.6V620.3"/>
	<path class="st0" d="M2703.3,594.8c0,23.8-27.9,35.7-83.7,35.7c-1.6,0-3.6,0-6-0.1c-2.5,0-5.3,0-8.6-0.1c-0.1-0.1-0.5-0.1-1.1-0.1
		h-1.2h-2.2h-4h-6.2c-46.8,0-70.3-11.8-70.3-35.3v-73.3c0-6.5,3.6-9.7,10.7-9.7c7.1,0,11.2,0.3,12.4,0.9c3.8,1.2,5.7,4.2,5.7,8.9
		v73.3c0,9,13.8,13.5,41.4,13.5h43.1c27.1,0,40.6-4.4,40.6-13.1v-73.7c0-4.7,2-7.7,5.9-8.9c1.2-0.6,5.4-0.9,12.6-0.9
		c7.2,0,10.8,3.2,10.8,9.7V594.8"/>
	<path class="st0" d="M2877.1,621c0,6.1-4.1,9.1-12.2,9.1c-7.7,0-12.3-0.4-13.9-1.1l-98.6-44.6v35.9c0,4.6-1.9,7.6-5.7,8.9
		c-1.2,0.6-5.2,0.9-12.2,0.9c-7.1,0-10.7-3.2-10.7-9.7v-131c0-6.4,3.6-9.6,10.7-9.6c6.7,0,10.8,0.2,12.3,0.7
		c3.7,1.2,5.6,4.1,5.6,8.9v68.3h0.1l97.2-43.9c2.5-0.7,6.8-1,13.1-1c8.1,0,12.2,3,12.2,9c0,3.9-2.5,7-7.4,9.3l-88.3,39.7l90.4,40.9
		C2874.6,613.8,2877.1,616.9,2877.1,621"/>
</g>
</svg>
